# xmcd
#
# Track frame offsets: 
#        150
#        12145
#        23148
#        34687
#        44882
#        58466
#        71555
#        83501
#        96117
#        106742
#        117175
#        128378
#        140619
#        152618
#        164703
#        177884
#        190040
#        202226
#        212717
#        226479
#        237944
#        248709
#        261819
#        273194
#        285125
#        295629
#        308701
#        322213
#        334096
#
# Disc length: 4636 seconds
#
# Revision: 4
# Processed by: cddbd v1.5.2PL0 Copyright (c) Steve Scherf et al.
# Submitted via: ExactAudioCopy v1.0b4
#
DISCID=9d121a1d
DTITLE=Peter Green Splinter Group - Me and the Devil [ disk 3]
DYEAR=2005
DGENRE=Blues Rock
TTITLE0=I'm A Steady Rollin' Man
TTITLE1=From Four Until Late
TTITLE2=Dead Shrimp Blues
TTITLE3=Little Queen Of Spades
TTITLE4=They're Red Hot
TTITLE5=Preachin' Blues
TTITLE6=Hell Hound On My Trail
TTITLE7=Traveling Riverside Blues
TTITLE8=Malted Milk
TTITLE9=Milkcow's Calf Blues
TTITLE10=Drunken Hearted Man
TTITLE11=Cross Road Blues
TTITLE12=Come On In My Kitchen
TTITLE13=When You Got A Good Friend
TTITLE14=32-20 Blues
TTITLE15=Phonograph Blues
TTITLE16=Last Fair Deal Gone Down
TTITLE17=Stop Breakin' Down Blues
TTITLE18=Terraplane Blues
TTITLE19=Walkin' Blues
TTITLE20=Love In Vain Blues
TTITLE21=Ramblin' On My Mind
TTITLE22=Stones In My Passway
TTITLE23=Me And The Devil Blues
TTITLE24=Honeymoon Blues
TTITLE25=Kind Hearted Woman Blues
TTITLE26=I Believe I'll Dust My Broom
TTITLE27=If I Had Possession Over Judgement Day
TTITLE28=Sweet Home Chicago
EXTD=
EXTT0=
EXTT1=
EXTT2=
EXTT3=
EXTT4=
EXTT5=
EXTT6=
EXTT7=
EXTT8=
EXTT9=
EXTT10=
EXTT11=
EXTT12=
EXTT13=
EXTT14=
EXTT15=
EXTT16=
EXTT17=
EXTT18=
EXTT19=
EXTT20=
EXTT21=
EXTT22=
EXTT23=
EXTT24=
EXTT25=
EXTT26=
EXTT27=
EXTT28=
PLAYORDER=
